<svg width="77" height="15" viewBox="0 0 77 15" fill="none" xmlns="http://www.w3.org/2000/svg">
<path d="M21.3895 4.624V13H19.7095V4.624H21.3895ZM26.7334 6.256C27.5254 6.256 28.1654 6.508 28.6534 7.012C29.1414 7.508 29.3854 8.204 29.3854 9.1V13H27.7054V9.328C27.7054 8.8 27.5734 8.396 27.3094 8.116C27.0454 7.828 26.6854 7.684 26.2294 7.684C25.7654 7.684 25.3974 7.828 25.1254 8.116C24.8614 8.396 24.7294 8.8 24.7294 9.328V13H23.0494V6.352H24.7294V7.18C24.9534 6.892 25.2374 6.668 25.5814 6.508C25.9334 6.34 26.3174 6.256 26.7334 6.256ZM32.663 7.324C32.879 7.004 33.175 6.744 33.551 6.544C33.935 6.344 34.371 6.244 34.859 6.244C35.427 6.244 35.939 6.384 36.395 6.664C36.859 6.944 37.223 7.344 37.487 7.864C37.759 8.376 37.895 8.972 37.895 9.652C37.895 10.332 37.759 10.936 37.487 11.464C37.223 11.984 36.859 12.388 36.395 12.676C35.939 12.964 35.427 13.108 34.859 13.108C34.363 13.108 33.927 13.012 33.551 12.82C33.183 12.62 32.887 12.364 32.663 12.052V13H30.983V4.12H32.663V7.324ZM36.179 9.652C36.179 9.252 36.095 8.908 35.927 8.62C35.767 8.324 35.551 8.1 35.279 7.948C35.015 7.796 34.727 7.72 34.415 7.72C34.111 7.72 33.823 7.8 33.551 7.96C33.287 8.112 33.071 8.336 32.903 8.632C32.743 8.928 32.663 9.276 32.663 9.676C32.663 10.076 32.743 10.424 32.903 10.72C33.071 11.016 33.287 11.244 33.551 11.404C33.823 11.556 34.111 11.632 34.415 11.632C34.727 11.632 35.015 11.552 35.279 11.392C35.551 11.232 35.767 11.004 35.927 10.708C36.095 10.412 36.179 10.06 36.179 9.652ZM42.0678 13.108C41.4278 13.108 40.8518 12.968 40.3398 12.688C39.8278 12.4 39.4238 11.996 39.1278 11.476C38.8398 10.956 38.6958 10.356 38.6958 9.676C38.6958 8.996 38.8438 8.396 39.1398 7.876C39.4438 7.356 39.8558 6.956 40.3758 6.676C40.8958 6.388 41.4758 6.244 42.1158 6.244C42.7558 6.244 43.3358 6.388 43.8558 6.676C44.3758 6.956 44.7838 7.356 45.0798 7.876C45.3838 8.396 45.5358 8.996 45.5358 9.676C45.5358 10.356 45.3798 10.956 45.0678 11.476C44.7638 11.996 44.3478 12.4 43.8198 12.688C43.2998 12.968 42.7158 13.108 42.0678 13.108ZM42.0678 11.644C42.3718 11.644 42.6558 11.572 42.9198 11.428C43.1918 11.276 43.4078 11.052 43.5678 10.756C43.7278 10.46 43.8078 10.1 43.8078 9.676C43.8078 9.044 43.6398 8.56 43.3038 8.224C42.9758 7.88 42.5718 7.708 42.0918 7.708C41.6118 7.708 41.2078 7.88 40.8798 8.224C40.5598 8.56 40.3998 9.044 40.3998 9.676C40.3998 10.308 40.5558 10.796 40.8678 11.14C41.1878 11.476 41.5878 11.644 42.0678 11.644ZM50.4401 13L49.0721 10.936L47.8601 13H46.0601L48.2321 9.664L46.0361 6.352H47.9321L49.2881 8.404L50.5121 6.352H52.3121L50.1281 9.664L52.3361 13H50.4401Z" fill="white"/>
<path d="M57.1366 13.084C56.3526 13.084 55.6326 12.9 54.9766 12.532C54.3206 12.164 53.8006 11.656 53.4166 11.008C53.0326 10.352 52.8406 9.612 52.8406 8.788C52.8406 7.972 53.0326 7.24 53.4166 6.592C53.8006 5.936 54.3206 5.424 54.9766 5.056C55.6326 4.688 56.3526 4.504 57.1366 4.504C57.9286 4.504 58.6486 4.688 59.2966 5.056C59.9526 5.424 60.4686 5.936 60.8446 6.592C61.2286 7.24 61.4206 7.972 61.4206 8.788C61.4206 9.612 61.2286 10.352 60.8446 11.008C60.4686 11.656 59.9526 12.164 59.2966 12.532C58.6406 12.9 57.9206 13.084 57.1366 13.084ZM57.1366 11.584C57.6406 11.584 58.0846 11.472 58.4686 11.248C58.8526 11.016 59.1526 10.688 59.3686 10.264C59.5846 9.84 59.6926 9.348 59.6926 8.788C59.6926 8.228 59.5846 7.74 59.3686 7.324C59.1526 6.9 58.8526 6.576 58.4686 6.352C58.0846 6.128 57.6406 6.016 57.1366 6.016C56.6326 6.016 56.1846 6.128 55.7926 6.352C55.4086 6.576 55.1086 6.9 54.8926 7.324C54.6766 7.74 54.5686 8.228 54.5686 8.788C54.5686 9.348 54.6766 9.84 54.8926 10.264C55.1086 10.688 55.4086 11.016 55.7926 11.248C56.1846 11.472 56.6326 11.584 57.1366 11.584ZM64.3505 7.384C64.5665 7.032 64.8465 6.756 65.1905 6.556C65.5425 6.356 65.9425 6.256 66.3905 6.256V8.02H65.9465C65.4185 8.02 65.0185 8.144 64.7465 8.392C64.4825 8.64 64.3505 9.072 64.3505 9.688V13H62.6705V6.352H64.3505V7.384ZM70.474 13.108C69.834 13.108 69.258 12.968 68.746 12.688C68.234 12.4 67.83 11.996 67.534 11.476C67.246 10.956 67.102 10.356 67.102 9.676C67.102 8.996 67.25 8.396 67.546 7.876C67.85 7.356 68.262 6.956 68.782 6.676C69.302 6.388 69.882 6.244 70.522 6.244C71.162 6.244 71.742 6.388 72.262 6.676C72.782 6.956 73.19 7.356 73.486 7.876C73.79 8.396 73.942 8.996 73.942 9.676C73.942 10.356 73.786 10.956 73.474 11.476C73.17 11.996 72.754 12.4 72.226 12.688C71.706 12.968 71.122 13.108 70.474 13.108ZM70.474 11.644C70.778 11.644 71.062 11.572 71.326 11.428C71.598 11.276 71.814 11.052 71.974 10.756C72.134 10.46 72.214 10.1 72.214 9.676C72.214 9.044 72.046 8.56 71.71 8.224C71.382 7.88 70.978 7.708 70.498 7.708C70.018 7.708 69.614 7.88 69.286 8.224C68.966 8.56 68.806 9.044 68.806 9.676C68.806 10.308 68.962 10.796 69.274 11.14C69.594 11.476 69.994 11.644 70.474 11.644Z" fill="#FACC15"/>
<path d="M0.849998 12.1787V3.8615C0.849998 3.44392 1.23297 3.1054 1.70539 3.1054H8.54851H15.3916C15.8641 3.1054 16.247 3.44392 16.247 3.8615V12.1787C16.247 12.5963 15.8641 12.9348 15.3916 12.9348H1.70539C1.23297 12.9348 0.849998 12.5963 0.849998 12.1787Z" stroke="#FACC15" stroke-width="1.7" stroke-linejoin="round"/>
<path d="M0.849998 3L7.92072 8.7029C8.28709 8.9984 8.80994 8.9984 9.17631 8.7029L16.247 3" stroke="#FACC15" stroke-width="1.7" stroke-linejoin="round"/>
</svg>
