<svg viewBox="0 0 76 15" fill="none" xmlns="http://www.w3.org/2000/svg">
<path d="M20.508 4.624V13H18.828V4.624H20.508ZM25.8518 6.256C26.6438 6.256 27.2838 6.508 27.7718 7.012C28.2598 7.508 28.5038 8.204 28.5038 9.1V13H26.8238V9.328C26.8238 8.8 26.6918 8.396 26.4278 8.116C26.1638 7.828 25.8038 7.684 25.3478 7.684C24.8838 7.684 24.5158 7.828 24.2438 8.116C23.9798 8.396 23.8478 8.8 23.8478 9.328V13H22.1678V6.352H23.8478V7.18C24.0718 6.892 24.3558 6.668 24.6998 6.508C25.0518 6.34 25.4358 6.256 25.8518 6.256ZM31.7814 7.324C31.9974 7.004 32.2934 6.744 32.6694 6.544C33.0534 6.344 33.4894 6.244 33.9774 6.244C34.5454 6.244 35.0574 6.384 35.5134 6.664C35.9774 6.944 36.3414 7.344 36.6054 7.864C36.8774 8.376 37.0134 8.972 37.0134 9.652C37.0134 10.332 36.8774 10.936 36.6054 11.464C36.3414 11.984 35.9774 12.388 35.5134 12.676C35.0574 12.964 34.5454 13.108 33.9774 13.108C33.4814 13.108 33.0454 13.012 32.6694 12.82C32.3014 12.62 32.0054 12.364 31.7814 12.052V13H30.1014V4.12H31.7814V7.324ZM35.2974 9.652C35.2974 9.252 35.2134 8.908 35.0454 8.62C34.8854 8.324 34.6694 8.1 34.3974 7.948C34.1334 7.796 33.8454 7.72 33.5334 7.72C33.2294 7.72 32.9414 7.8 32.6694 7.96C32.4054 8.112 32.1894 8.336 32.0214 8.632C31.8614 8.928 31.7814 9.276 31.7814 9.676C31.7814 10.076 31.8614 10.424 32.0214 10.72C32.1894 11.016 32.4054 11.244 32.6694 11.404C32.9414 11.556 33.2294 11.632 33.5334 11.632C33.8454 11.632 34.1334 11.552 34.3974 11.392C34.6694 11.232 34.8854 11.004 35.0454 10.708C35.2134 10.412 35.2974 10.06 35.2974 9.652ZM41.1863 13.108C40.5463 13.108 39.9703 12.968 39.4583 12.688C38.9463 12.4 38.5423 11.996 38.2463 11.476C37.9583 10.956 37.8143 10.356 37.8143 9.676C37.8143 8.996 37.9623 8.396 38.2583 7.876C38.5623 7.356 38.9743 6.956 39.4943 6.676C40.0143 6.388 40.5943 6.244 41.2343 6.244C41.8743 6.244 42.4543 6.388 42.9743 6.676C43.4943 6.956 43.9023 7.356 44.1983 7.876C44.5023 8.396 44.6543 8.996 44.6543 9.676C44.6543 10.356 44.4983 10.956 44.1862 11.476C43.8823 11.996 43.4663 12.4 42.9383 12.688C42.4183 12.968 41.8343 13.108 41.1863 13.108ZM41.1863 11.644C41.4903 11.644 41.7743 11.572 42.0383 11.428C42.3103 11.276 42.5263 11.052 42.6863 10.756C42.8463 10.46 42.9263 10.1 42.9263 9.676C42.9263 9.044 42.7583 8.56 42.4223 8.224C42.0943 7.88 41.6903 7.708 41.2103 7.708C40.7303 7.708 40.3263 7.88 39.9983 8.224C39.6783 8.56 39.5183 9.044 39.5183 9.676C39.5183 10.308 39.6743 10.796 39.9863 11.14C40.3063 11.476 40.7063 11.644 41.1863 11.644ZM49.5586 13L48.1906 10.936L46.9786 13H45.1786L47.3506 9.664L45.1546 6.352H47.0506L48.4066 8.404L49.6306 6.352H51.4306L49.2466 9.664L51.4546 13H49.5586Z" fill="white"/>
<path d="M56.2551 13.084C55.4711 13.084 54.7511 12.9 54.0951 12.532C53.4391 12.164 52.9191 11.656 52.5351 11.008C52.1511 10.352 51.9591 9.612 51.9591 8.788C51.9591 7.972 52.1511 7.24 52.5351 6.592C52.9191 5.936 53.4391 5.424 54.0951 5.056C54.7511 4.688 55.4711 4.504 56.2551 4.504C57.0471 4.504 57.7671 4.688 58.4151 5.056C59.0711 5.424 59.5871 5.936 59.9631 6.592C60.3471 7.24 60.5391 7.972 60.5391 8.788C60.5391 9.612 60.3471 10.352 59.9631 11.008C59.5871 11.656 59.0711 12.164 58.4151 12.532C57.7591 12.9 57.0391 13.084 56.2551 13.084ZM56.2551 11.584C56.7591 11.584 57.2031 11.472 57.5871 11.248C57.9711 11.016 58.2711 10.688 58.4871 10.264C58.7031 9.84 58.8111 9.348 58.8111 8.788C58.8111 8.228 58.7031 7.74 58.4871 7.324C58.2711 6.9 57.9711 6.576 57.5871 6.352C57.2031 6.128 56.7591 6.016 56.2551 6.016C55.7511 6.016 55.3031 6.128 54.9111 6.352C54.5271 6.576 54.2271 6.9 54.0111 7.324C53.7951 7.74 53.6871 8.228 53.6871 8.788C53.6871 9.348 53.7951 9.84 54.0111 10.264C54.2271 10.688 54.5271 11.016 54.9111 11.248C55.3031 11.472 55.7511 11.584 56.2551 11.584ZM63.4689 7.384C63.6849 7.032 63.9649 6.756 64.3089 6.556C64.6609 6.356 65.0609 6.256 65.5089 6.256V8.02H65.0649C64.5369 8.02 64.1369 8.144 63.8649 8.392C63.6009 8.64 63.4689 9.072 63.4689 9.688V13H61.7889V6.352H63.4689V7.384ZM69.5925 13.108C68.9525 13.108 68.3765 12.968 67.8645 12.688C67.3525 12.4 66.9485 11.996 66.6525 11.476C66.3645 10.956 66.2205 10.356 66.2205 9.676C66.2205 8.996 66.3685 8.396 66.6645 7.876C66.9685 7.356 67.3805 6.956 67.9005 6.676C68.4205 6.388 69.0005 6.244 69.6405 6.244C70.2805 6.244 70.8605 6.388 71.3805 6.676C71.9005 6.956 72.3085 7.356 72.6045 7.876C72.9085 8.396 73.0605 8.996 73.0605 9.676C73.0605 10.356 72.9045 10.956 72.5925 11.476C72.2885 11.996 71.8725 12.4 71.3445 12.688C70.8245 12.968 70.2405 13.108 69.5925 13.108ZM69.5925 11.644C69.8965 11.644 70.1805 11.572 70.4445 11.428C70.7165 11.276 70.9325 11.052 71.0925 10.756C71.2525 10.46 71.3325 10.1 71.3325 9.676C71.3325 9.044 71.1645 8.56 70.8285 8.224C70.5005 7.88 70.0965 7.708 69.6165 7.708C69.1365 7.708 68.7325 7.88 68.4045 8.224C68.0845 8.56 67.9245 9.044 67.9245 9.676C67.9245 10.308 68.0805 10.796 68.3925 11.14C68.7125 11.476 69.1125 11.644 69.5925 11.644Z" fill="#FACC15"/>
<path d="M5.46762 9.21474C5.58662 9.15436 5.61372 9.03718 5.52819 8.95299C5.44292 8.86899 5.27664 8.84986 5.15738 8.91024L0 11.5315V5.40155L8.34142 9.77555C8.3887 9.8003 8.44422 9.81249 8.5 9.81249C8.55578 9.81249 8.6113 9.8003 8.65858 9.77555L17 5.40155V11.5315L11.8426 8.91043C11.7234 8.85024 11.5576 8.86918 11.4718 8.95318C11.3863 9.03718 11.4131 9.15436 11.5324 9.21493L17 11.9935V12.25C17 12.6646 16.5248 13 15.9375 13H1.0625C0.475203 13 0 12.6646 0 12.25V11.9935L5.46762 9.21474Z" fill="#FACC15"/>
<path d="M8.5 9.39138L0 4.93431V4.75C0 4.33544 0.475203 4 1.0625 4H15.9375C16.5248 4 17 4.33544 17 4.75V4.93413L8.5 9.39138Z" fill="#FACC15"/>
</svg>
